<?xml version="1.0" encoding="UTF-8" standalone="no"?>
<!DOCTYPE svg PUBLIC "-//W3C//DTD SVG 1.1//EN"
 "http://www.w3.org/Graphics/SVG/1.1/DTD/svg11.dtd">
<!-- Generated by graphviz version 2.43.0 (0)
 -->
<!-- Title: tree&#45;graph Pages: 1 -->
<svg width="176pt" height="188pt"
 viewBox="0.00 0.00 176.39 188.00" xmlns="http://www.w3.org/2000/svg" xmlns:xlink="http://www.w3.org/1999/xlink">
<g id="graph0" class="graph" transform="scale(1 1) rotate(0) translate(4 184)">
<title>tree&#45;graph</title>
<polygon fill="white" stroke="transparent" points="-4,4 -4,-184 172.39,-184 172.39,4 -4,4"/>
<!-- 0 -->
<g id="node1" class="node">
<title>0</title>
<ellipse fill="none" stroke="black" cx="83.7" cy="-162" rx="27.1" ry="18"/>
<text text-anchor="middle" x="83.7" y="-158.3" font-family="Times,serif" font-size="14.00">exp</text>
</g>
<!-- 00 -->
<g id="node2" class="node">
<title>00</title>
<ellipse fill="none" stroke="black" cx="83.7" cy="-90" rx="27" ry="18"/>
<text text-anchor="middle" x="83.7" y="-86.3" font-family="Times,serif" font-size="14.00">/</text>
</g>
<!-- 0&#45;&gt;00 -->
<g id="edge1" class="edge">
<title>0&#45;&gt;00</title>
<path fill="none" stroke="black" d="M83.7,-143.7C83.7,-135.98 83.7,-126.71 83.7,-118.11"/>
<polygon fill="black" stroke="black" points="87.2,-118.1 83.7,-108.1 80.2,-118.1 87.2,-118.1"/>
</g>
<!-- 000 -->
<g id="node3" class="node">
<title>000</title>
<ellipse fill="none" stroke="black" cx="37.7" cy="-18" rx="37.89" ry="18"/>
<text text-anchor="middle" x="37.7" y="-14.3" font-family="Times,serif" font-size="14.00">gauss</text>
</g>
<!-- 00&#45;&gt;000 -->
<g id="edge2" class="edge">
<title>00&#45;&gt;000</title>
<path fill="none" stroke="black" d="M73.26,-73.12C67.58,-64.47 60.42,-53.58 54.02,-43.83"/>
<polygon fill="black" stroke="black" points="56.83,-41.74 48.41,-35.31 50.98,-45.59 56.83,-41.74"/>
</g>
<!-- 001 -->
<g id="node4" class="node">
<title>001</title>
<ellipse fill="none" stroke="black" cx="130.7" cy="-18" rx="37.89" ry="18"/>
<text text-anchor="middle" x="130.7" y="-14.3" font-family="Times,serif" font-size="14.00">gauss</text>
</g>
<!-- 00&#45;&gt;001 -->
<g id="edge3" class="edge">
<title>00&#45;&gt;001</title>
<path fill="none" stroke="black" d="M94.36,-73.12C100.17,-64.47 107.48,-53.58 114.02,-43.83"/>
<polygon fill="black" stroke="black" points="117.08,-45.56 119.75,-35.31 111.27,-41.66 117.08,-45.56"/>
</g>
</g>
</svg>
